<?xml version="1.0" encoding="UTF-8" standalone="no" ?>
<!DOCTYPE svg PUBLIC "-//W3C//DTD SVG 1.1//EN" "http://www.w3.org/Graphics/SVG/1.1/DTD/svg11.dtd">
<svg xmlns="http://www.w3.org/2000/svg" xmlns:xlink="http://www.w3.org/1999/xlink" version="1.1" width="193" height="38" viewBox="0 0 193 38" xml:space="preserve">
<path d="M31.6756 6.87264C31.0771 7.4216 31.886 8.35219 32.4854 7.80252C34.5232 5.93355 35.903 3.49645 36.4755 0.754581C36.5679 0.311854 36.1837 -0.0802869 35.7541 0.0141823C30.9023 1.08117 27.0825 4.94763 25.9633 9.89542L23.8866 12.0267C24.9842 8.367 24.4916 4.31955 22.4048 1.00985C22.1655 0.630571 21.6238 0.630493 21.3844 1.00985C18.6495 5.34764 18.6494 10.9534 21.3843 15.2913C21.5628 15.5744 21.9349 15.6639 22.2187 15.4799C25.9793 13.0356 30.4064 13.0252 33.9519 14.953C31.2663 16.4154 28.1243 16.7414 25.1848 15.8347C24.4151 15.5972 24.066 16.7919 24.835 17.0291C28.4298 18.1379 32.3111 17.5811 35.4808 15.4764C35.8496 15.2314 35.8511 14.6752 35.4808 14.4293C32.2558 12.2877 28.3119 11.7822 24.7459 12.9085C27.2398 10.3491 27.0563 10.5931 27.102 10.3742C27.986 6.14019 31.0485 2.75067 35.0344 1.49373C34.4169 3.56785 33.2683 5.41187 31.6756 6.87264ZM21.8946 2.57927C23.6898 6.05702 23.6898 10.2442 21.8946 13.7221C20.0994 10.2443 20.0994 6.0571 21.8946 2.57927ZM31.1676 22.6901C26.8707 19.8368 21.5674 19.2706 16.8707 20.9906L20.2166 17.5569C20.7842 16.9743 19.9258 16.0917 19.3573 16.675L16.0114 20.1087C17.6874 15.2887 17.1358 9.846 14.3555 5.43619C14.1162 5.05691 13.5745 5.05683 13.3352 5.43619C10.8308 9.40826 10.0881 14.3049 11.2977 18.8706C11.5083 19.6657 12.6812 19.3395 12.4703 18.5434C11.4381 14.6471 11.9425 10.4902 13.8453 6.98449C16.5251 11.9208 16.365 18.0255 13.3665 22.8229L7.41134 28.9345C9.19101 24.2636 9.22108 19.0091 7.39463 14.265C7.09979 13.4988 5.96912 13.956 6.26441 14.7232C8.31135 20.04 7.87228 26.0405 5.11696 30.9734C1.72615 24.9053 1.89613 17.3367 5.62719 11.4192C6.0633 10.7276 5.04366 10.049 4.60687 10.7417C0.527582 17.2118 0.44077 25.532 4.34515 32.0814L0.186261 36.3495C-0.381468 36.9321 0.477151 37.8145 1.04556 37.2313L5.49944 32.6605C11.2579 28.865 18.6056 28.7015 24.5005 32.1708C19.8824 34.883 14.2397 35.4105 9.21106 33.5593C8.4555 33.281 8.04393 34.4545 8.80077 34.7331C14.3543 36.7777 20.7473 36.1813 25.9978 32.6946C26.3667 32.4496 26.3682 31.8935 25.9978 31.6476C20.6675 28.108 14.0481 27.497 8.27254 29.8146L13.9333 24.0051C19.2454 27.3022 25.9548 27.1988 31.1675 23.7373C31.5366 23.4921 31.5379 22.936 31.1676 22.6901ZM15.0238 23.2136C19.5639 20.6178 25.1191 20.6179 29.6591 23.2136C25.1191 25.8094 19.5639 25.8095 15.0238 23.2136Z" fill="#374836"/>
<g transform="matrix(1.41 0 0 1.41 265 -15)" style="" id="a1280eef-2094-4352-9677-e3c6c8888f9a"  >
		<text xml:space="preserve" font-family="Raleway" font-size="30" font-style="normal" font-weight="700" style="stroke: none; stroke-width: 1; stroke-dasharray: none; stroke-linecap: butt; stroke-dashoffset: 0; stroke-linejoin: miter; stroke-miterlimit: 4; fill: rgb(55,72,54); fill-rule: nonzero; opacity: 1; white-space: pre;" ><tspan x="-159.6" y="32.98" >JULES</tspan></text>
</g>
</svg>