<svg width="117" height="22" viewBox="0 0 117 22" fill="none" xmlns="http://www.w3.org/2000/svg">
<path d="M19.0851 3.97889C18.7245 4.29672 19.2119 4.83548 19.573 4.51725C20.8008 3.43522 21.6322 2.02426 21.9771 0.436863C22.0328 0.180547 21.8013 -0.0464819 21.5424 0.00821083C18.6192 0.625941 16.3177 2.86442 15.6433 5.72893L14.3921 6.96281C15.0534 4.84405 14.7566 2.50079 13.4992 0.584651C13.3551 0.365067 13.0287 0.365022 12.8845 0.584651C11.2366 3.096 11.2366 6.34147 12.8844 8.85287C12.9919 9.01676 13.2161 9.06857 13.3871 8.96203C15.653 7.54692 18.3203 7.54092 20.4566 8.65702C18.8385 9.50367 16.9453 9.69239 15.1742 9.16748C14.7105 9.02999 14.5002 9.72163 14.9635 9.85895C17.1294 10.5009 19.468 10.1785 21.3777 8.95999C21.6 8.81816 21.6009 8.49619 21.3777 8.35382C19.4347 7.11393 17.0584 6.82125 14.9098 7.47332C16.4125 5.99156 16.3019 6.13285 16.3294 6.00609C16.8621 3.55484 18.7072 1.5925 21.1088 0.864793C20.7368 2.0656 20.0447 3.13319 19.0851 3.97889ZM13.1919 1.49326C14.2735 3.5067 14.2735 5.93087 13.1919 7.94439C12.1102 5.93091 12.1102 3.50674 13.1919 1.49326ZM18.779 13.1364C16.1901 11.4844 12.9947 11.1566 10.1649 12.1524L12.1808 10.1645C12.5228 9.82723 12.0056 9.31622 11.6631 9.65394L9.64715 11.6419C10.657 8.85133 10.3246 5.70032 8.64941 3.14727C8.50526 2.92768 8.17885 2.92764 8.03465 3.14727C6.52572 5.44689 6.07827 8.2818 6.80706 10.9251C6.93396 11.3854 7.64065 11.1965 7.51357 10.7357C6.89163 8.4799 7.19558 6.07328 8.34203 4.04365C9.95663 6.90153 9.86021 10.4358 8.05355 13.2133L4.46545 16.7515C5.53773 14.0473 5.55586 11.0053 4.45539 8.25869C4.27774 7.8151 3.59649 8.07977 3.77441 8.52399C5.00773 11.6021 4.74318 15.0761 3.08305 17.932C1.04004 14.4188 1.14245 10.037 3.39047 6.6111C3.65324 6.21069 3.03889 5.81782 2.77572 6.21886C0.317877 9.96473 0.265571 14.7817 2.61802 18.5735L0.112225 21.0444C-0.229841 21.3817 0.287491 21.8926 0.629969 21.555L3.3135 18.9087C6.78308 16.7113 11.2102 16.6167 14.7619 18.6252C11.9795 20.1954 8.57967 20.5008 5.54981 19.4291C5.09458 19.268 4.8466 19.9474 5.30261 20.1086C8.64868 21.2923 12.5006 20.9471 15.6641 18.9285C15.8864 18.7866 15.8873 18.4647 15.6641 18.3223C12.4525 16.273 8.46422 15.9193 4.98434 17.2611L8.39507 13.8977C11.5957 15.8066 15.6382 15.7467 18.779 13.7426C19.0013 13.6007 19.0021 13.2787 18.779 13.1364ZM9.05207 13.4395C11.7876 11.9366 15.1347 11.9367 17.8701 13.4395C15.1347 14.9423 11.7876 14.9424 9.05207 13.4395Z" fill="#374836"/>
<g transform="matrix(1.41 0 0 1.41 260 -28)" style="" id="a1280eef-2094-4352-9677-e3c6c8888f9a"  >
		<text xml:space="preserve" font-family="Raleway" font-size="15" font-style="normal" font-weight="700" style="stroke: none; stroke-width: 1; stroke-dasharray: none; stroke-linecap: butt; stroke-dashoffset: 0; stroke-linejoin: miter; stroke-miterlimit: 4; fill: rgb(55,72,54); fill-rule: nonzero; opacity: 1; white-space: pre;" ><tspan x="-159.6" y="32.98" >JULES</tspan></text>
</g>
</svg>
